<svg width="53" height="44" viewBox="0 0 53 44" fill="none" xmlns="http://www.w3.org/2000/svg">
<path d="M14.4565 31.0437C6.45238 32.1084 1 34.2212 1 36.6544C1 40.1593 12.3051 43 26.2485 43C40.192 43 51.4971 40.1593 51.4971 36.6544C51.4971 34.2212 46.0447 32.1061 38.0406 31.0437M26.2485 1C18.64 1 12.9138 8.27833 15.2267 17.6836C18.9631 32.8786 26.2485 37.5825 26.2485 37.5825C26.2485 37.5825 33.534 32.881 37.2703 17.6836C39.5833 8.27833 33.8571 1 26.2485 1ZM32.319 11.7173C32.319 15.0905 29.6011 17.825 26.2485 17.825C22.8959 17.825 20.1781 15.0905 20.1781 11.7173C20.1781 8.34411 22.8959 5.60961 26.2485 5.60961C29.6011 5.60961 32.319 8.34411 32.319 11.7173Z" stroke="white" stroke-width="2" stroke-linecap="round" stroke-linejoin="round"/>
</svg>
