<svg width="43" height="42" viewBox="0 0 43 42" fill="none" xmlns="http://www.w3.org/2000/svg">
<path fill-rule="evenodd" clip-rule="evenodd" d="M13.9149 0C14.4478 0 14.8798 0.431988 14.8798 0.964872V8.10105C14.8798 8.63393 14.4478 9.06592 13.9149 9.06592C13.3821 9.06592 12.9501 8.63393 12.9501 8.10105V0.964872C12.9501 0.431988 13.3821 0 13.9149 0ZM28.4577 0C28.9905 0 29.4225 0.431988 29.4225 0.964872V8.10105C29.4225 8.63393 28.9905 9.06592 28.4577 9.06592C27.9248 9.06592 27.4928 8.63393 27.4928 8.10105V0.964872C27.4928 0.431988 27.9248 0 28.4577 0ZM1.94381 13.0773C2.19396 8.83216 5.7479 5.43308 10.0526 5.43308C10.5855 5.43308 11.0175 5.00109 11.0175 4.46821C11.0175 3.93532 10.5855 3.50334 10.0526 3.50334C4.52149 3.50334 0 8.02482 0 13.556V31.9474C0 37.4785 4.52149 42 10.0526 42H32.32C37.8511 42 42.3726 37.4785 42.3726 31.9474V13.556C42.3726 8.02482 37.8511 3.50334 32.32 3.50334C31.7871 3.50334 31.3551 3.93532 31.3551 4.46821C31.3551 5.00109 31.7871 5.43308 32.32 5.43308C36.6247 5.43308 40.1786 8.83216 40.4288 13.0773H1.94381ZM40.4429 15.007H1.92974V31.9474C1.92974 36.4128 5.58725 40.0703 10.0526 40.0703H32.32C36.7853 40.0703 40.4429 36.4127 40.4429 31.9474V15.007ZM16.8987 4.46821C16.8987 3.93532 17.3307 3.50334 17.8636 3.50334H24.509C25.0419 3.50334 25.4739 3.93532 25.4739 4.46821C25.4739 5.00109 25.0419 5.43308 24.509 5.43308H17.8636C17.3307 5.43308 16.8987 5.00109 16.8987 4.46821Z" fill="white"/>
<path d="M12.6404 25.2951C13.7082 25.2951 14.5738 24.4295 14.5738 23.3617C14.5738 22.2939 13.7082 21.4283 12.6404 21.4283C11.5726 21.4283 10.707 22.2939 10.707 23.3617C10.707 24.4295 11.5726 25.2951 12.6404 25.2951Z" fill="white"/>
<path d="M21.1874 25.2951C22.2552 25.2951 23.1209 24.4295 23.1209 23.3617C23.1209 22.2939 22.2552 21.4283 21.1874 21.4283C20.1196 21.4283 19.254 22.2939 19.254 23.3617C19.254 24.4295 20.1196 25.2951 21.1874 25.2951Z" fill="white"/>
<path d="M29.7322 25.2951C30.8 25.2951 31.6656 24.4295 31.6656 23.3617C31.6656 22.2939 30.8 21.4283 29.7322 21.4283C28.6644 21.4283 27.7988 22.2939 27.7988 23.3617C27.7988 24.4295 28.6644 25.2951 29.7322 25.2951Z" fill="white"/>
<path d="M12.6404 32.6767C13.7082 32.6767 14.5738 31.811 14.5738 30.7432C14.5738 29.6754 13.7082 28.8098 12.6404 28.8098C11.5726 28.8098 10.707 29.6754 10.707 30.7432C10.707 31.811 11.5726 32.6767 12.6404 32.6767Z" fill="white"/>
<path d="M21.1874 32.6767C22.2552 32.6767 23.1209 31.811 23.1209 30.7432C23.1209 29.6754 22.2552 28.8098 21.1874 28.8098C20.1196 28.8098 19.254 29.6754 19.254 30.7432C19.254 31.811 20.1196 32.6767 21.1874 32.6767Z" fill="white"/>
<path d="M29.7322 32.6767C30.8 32.6767 31.6656 31.811 31.6656 30.7432C31.6656 29.6754 30.8 28.8098 29.7322 28.8098C28.6644 28.8098 27.7988 29.6754 27.7988 30.7432C27.7988 31.811 28.6644 32.6767 29.7322 32.6767Z" fill="white"/>
</svg>
