<svg width="35" height="44" viewBox="0 0 35 44" fill="none" xmlns="http://www.w3.org/2000/svg">
<path d="M22.3717 17.778C20.9761 19.176 19.0451 20.0433 16.9131 20.0433C12.6537 20.0433 9.20082 16.5904 9.20082 12.3311C9.20082 8.07169 12.6537 4.61884 16.9131 4.61884M33.2656 33.628C33.2656 38.804 26.0427 43 17.1328 43C8.2229 43 1 38.804 1 33.628C1 28.4519 8.2229 24.2559 17.1328 24.2559C26.0427 24.2559 33.2656 28.4519 33.2656 33.628ZM31.3884 5.66381H29.2891V3.56451C29.2891 2.15251 28.1342 1 26.7246 1C25.3126 1 24.1601 2.15485 24.1601 3.56451V5.66381H22.0608C20.6488 5.66381 19.4963 6.81866 19.4963 8.22832C19.4963 9.63798 20.6511 10.7928 22.0608 10.7928H24.1601V12.8921C24.1601 14.3041 25.3149 15.4566 26.7246 15.4566C28.1366 15.4566 29.2891 14.3018 29.2891 12.8921V10.7928H31.3884C32.8004 10.7928 33.9529 9.63798 33.9529 8.22832C33.9529 6.81866 32.7981 5.66381 31.3884 5.66381Z" stroke="white" stroke-width="2" stroke-linecap="round" stroke-linejoin="round"/>
</svg>
