<svg width="53" height="44" viewBox="0 0 53 44" fill="none" xmlns="http://www.w3.org/2000/svg">
<path d="M20.5785 41.045C22.7055 42.046 24.7052 42.8092 26.3305 42.9835V43C26.354 43 26.38 42.9929 26.4035 42.9906C26.4271 42.9906 26.453 42.9976 26.4765 43V42.9835H26.3705V43C26.3941 43 26.42 42.9929 26.4435 42.9906C26.4671 42.9906 26.493 42.9976 26.5166 43V42.9835C28.5705 42.7645 31.2157 41.6032 33.9692 40.2135C36.0962 39.1394 38.2279 37.5825 38.2279 37.5825C40.1193 36.2705 41.8011 34.8384 43.1319 33.5806C44.133 32.6337 46.1422 30.3395 46.1422 30.3395C47.049 29.2654 47.8546 28.196 48.5541 27.0984C50.707 23.7183 51.8494 20.0862 51.8494 15.3706C51.8494 7.43508 45.4167 1.00236 37.4812 1.00236C33.0459 1.00236 29.0817 3.01391 26.4459 6.17492H26.4059C23.7678 3.01155 19.8035 1 15.3682 1C7.43273 1 1 7.43273 1 15.3682C1 18.4704 1.49464 21.1014 2.44389 23.5016M21.0378 26.4977H17.5023V22.9622C17.5023 20.5856 15.5567 18.64 13.18 18.64C10.8034 18.64 8.85777 20.5856 8.85777 22.9622V26.4977H5.32225C2.9456 26.4977 1 28.4433 1 30.82C1 33.1966 2.9456 35.1422 5.32225 35.1422H8.85777V38.6778C8.85777 41.0544 10.8034 43 13.18 43C15.5567 43 17.5023 41.0544 17.5023 38.6778V35.1422H21.0378C23.4144 35.1422 25.36 33.1966 25.36 30.82C25.36 28.4433 23.4144 26.4977 21.0378 26.4977Z" stroke="white" stroke-width="2" stroke-linecap="round" stroke-linejoin="round"/>
</svg>
